<mxfile host="app.diagrams.net" agent="Mozilla/5.0 (X11; Ubuntu; Linux x86_64; rv:131.0) Gecko/20100101 Firefox/131.0" version="24.7.17">
  <diagram name="Page-1" id="CLKjj0uphk9o_yIqqThG">
    <mxGraphModel dx="2261" dy="1960" grid="1" gridSize="10" guides="1" tooltips="1" connect="1" arrows="1" fold="1" page="1" pageScale="1" pageWidth="827" pageHeight="1169" math="0" shadow="0">
      <root>
        <mxCell id="0" />
        <mxCell id="1" parent="0" />
        <mxCell id="VC-tiXhj3lt7oMg_6m5k-4" value="" style="endArrow=none;html=1;rounded=0;entryX=0.395;entryY=0.006;entryDx=0;entryDy=0;entryPerimeter=0;" parent="1" source="VC-tiXhj3lt7oMg_6m5k-42" edge="1">
          <mxGeometry width="50" height="50" relative="1" as="geometry">
            <mxPoint x="378.4419357469642" y="214.56867858724036" as="sourcePoint" />
            <mxPoint x="280.4000000000001" y="-465.0799999999999" as="targetPoint" />
          </mxGeometry>
        </mxCell>
        <mxCell id="VC-tiXhj3lt7oMg_6m5k-6" value="Définition" style="text;strokeColor=none;fillColor=none;html=1;fontSize=15;fontStyle=1;verticalAlign=middle;align=center;" parent="1" vertex="1">
          <mxGeometry x="240" y="-270" width="77" height="20" as="geometry" />
        </mxCell>
        <mxCell id="VC-tiXhj3lt7oMg_6m5k-7" value="" style="endArrow=none;html=1;rounded=0;entryX=0.639;entryY=-0.003;entryDx=0;entryDy=0;entryPerimeter=0;" parent="1" source="VC-tiXhj3lt7oMg_6m5k-42" edge="1">
          <mxGeometry width="50" height="50" relative="1" as="geometry">
            <mxPoint x="421.5580642530358" y="214.56867858724036" as="sourcePoint" />
            <mxPoint x="651.2800000000002" y="-472.46000000000004" as="targetPoint" />
          </mxGeometry>
        </mxCell>
        <mxCell id="VC-tiXhj3lt7oMg_6m5k-8" value="Localisation&amp;nbsp; et structure dans l&#39;entreprise" style="text;strokeColor=none;fillColor=none;html=1;fontSize=15;fontStyle=1;verticalAlign=middle;align=center;" parent="1" vertex="1">
          <mxGeometry x="310" y="-380" width="290" height="20" as="geometry" />
        </mxCell>
        <mxCell id="VC-tiXhj3lt7oMg_6m5k-9" value="" style="endArrow=none;html=1;rounded=0;" parent="1" source="VC-tiXhj3lt7oMg_6m5k-42" edge="1">
          <mxGeometry width="50" height="50" relative="1" as="geometry">
            <mxPoint x="429.999999999985" y="225" as="sourcePoint" />
            <mxPoint x="1360" y="302" as="targetPoint" />
          </mxGeometry>
        </mxCell>
        <mxCell id="VC-tiXhj3lt7oMg_6m5k-10" value="gouvernance &amp;amp; pilotage" style="text;strokeColor=none;fillColor=none;html=1;fontSize=15;fontStyle=1;verticalAlign=middle;align=center;" parent="1" vertex="1">
          <mxGeometry x="1060" y="-380" width="77" height="20" as="geometry" />
        </mxCell>
        <mxCell id="VC-tiXhj3lt7oMg_6m5k-11" value="" style="endArrow=none;html=1;rounded=0;" parent="1" source="VC-tiXhj3lt7oMg_6m5k-42" edge="1">
          <mxGeometry width="50" height="50" relative="1" as="geometry">
            <mxPoint x="388.24000000000024" y="237.42000000000007" as="sourcePoint" />
            <mxPoint x="891" y="350" as="targetPoint" />
          </mxGeometry>
        </mxCell>
        <mxCell id="VC-tiXhj3lt7oMg_6m5k-13" value="Budget" style="text;strokeColor=none;fillColor=none;html=1;fontSize=15;fontStyle=1;verticalAlign=middle;align=center;" parent="1" vertex="1">
          <mxGeometry y="390" width="77" height="20" as="geometry" />
        </mxCell>
        <mxCell id="VC-tiXhj3lt7oMg_6m5k-15" value="" style="endArrow=none;html=1;rounded=0;exitX=0.697;exitY=0.961;exitDx=0;exitDy=0;exitPerimeter=0;entryX=0.815;entryY=0.997;entryDx=0;entryDy=0;entryPerimeter=0;" parent="1" source="VC-tiXhj3lt7oMg_6m5k-42" edge="1">
          <mxGeometry width="50" height="50" relative="1" as="geometry">
            <mxPoint x="411.82000000000016" y="238.82999999999947" as="sourcePoint" />
            <mxPoint x="918.7999999999997" y="347.53999999999996" as="targetPoint" />
          </mxGeometry>
        </mxCell>
        <mxCell id="VC-tiXhj3lt7oMg_6m5k-20" value="" style="edgeStyle=none;rounded=0;jumpStyle=none;html=1;shadow=0;labelBackgroundColor=none;startArrow=none;startFill=0;endArrow=classic;endFill=1;jettySize=auto;orthogonalLoop=1;strokeColor=#2F5B7C;strokeWidth=3;fontFamily=Helvetica;fontSize=16;fontColor=#23445D;spacing=5;exitX=0.019;exitY=0.944;exitDx=0;exitDy=0;exitPerimeter=0;" parent="1" target="VC-tiXhj3lt7oMg_6m5k-22" edge="1">
          <mxGeometry relative="1" as="geometry">
            <mxPoint x="496" y="448" as="sourcePoint" />
          </mxGeometry>
        </mxCell>
        <mxCell id="VC-tiXhj3lt7oMg_6m5k-21" value="est" style="edgeLabel;html=1;align=center;verticalAlign=middle;resizable=0;points=[];" parent="VC-tiXhj3lt7oMg_6m5k-20" vertex="1" connectable="0">
          <mxGeometry x="-0.1978" y="3" relative="1" as="geometry">
            <mxPoint as="offset" />
          </mxGeometry>
        </mxCell>
        <mxCell id="VC-tiXhj3lt7oMg_6m5k-22" value="unique" style="rounded=1;whiteSpace=wrap;html=1;shadow=0;labelBackgroundColor=none;strokeColor=#005700;strokeWidth=3;fillColor=#008a00;fontFamily=Helvetica;fontSize=14;fontColor=#ffffff;align=center;spacing=5;fontStyle=1;arcSize=7;perimeterSpacing=2;" parent="1" vertex="1">
          <mxGeometry x="-50" y="573.25" width="80" height="53.25" as="geometry" />
        </mxCell>
        <mxCell id="VC-tiXhj3lt7oMg_6m5k-23" value="" style="edgeStyle=none;rounded=0;jumpStyle=none;html=1;shadow=0;labelBackgroundColor=none;startArrow=none;startFill=0;endArrow=classic;endFill=1;jettySize=auto;orthogonalLoop=1;strokeColor=#2F5B7C;strokeWidth=3;fontFamily=Helvetica;fontSize=16;fontColor=#23445D;spacing=5;exitX=0.028;exitY=0.935;exitDx=0;exitDy=0;exitPerimeter=0;" parent="1" target="VC-tiXhj3lt7oMg_6m5k-25" edge="1">
          <mxGeometry relative="1" as="geometry">
            <mxPoint x="497" y="448" as="sourcePoint" />
          </mxGeometry>
        </mxCell>
        <mxCell id="VC-tiXhj3lt7oMg_6m5k-24" value="est" style="edgeLabel;html=1;align=center;verticalAlign=middle;resizable=0;points=[];" parent="VC-tiXhj3lt7oMg_6m5k-23" vertex="1" connectable="0">
          <mxGeometry x="-0.1978" y="3" relative="1" as="geometry">
            <mxPoint x="-51" y="25" as="offset" />
          </mxGeometry>
        </mxCell>
        <mxCell id="VC-tiXhj3lt7oMg_6m5k-25" value="temporaire : 15 ans" style="rounded=1;whiteSpace=wrap;html=1;shadow=0;labelBackgroundColor=none;strokeColor=#005700;strokeWidth=3;fillColor=#008a00;fontFamily=Helvetica;fontSize=14;fontColor=#ffffff;align=center;spacing=5;fontStyle=1;arcSize=7;perimeterSpacing=2;" parent="1" vertex="1">
          <mxGeometry x="50" y="656.75" width="80" height="53.25" as="geometry" />
        </mxCell>
        <mxCell id="VC-tiXhj3lt7oMg_6m5k-26" value="" style="edgeStyle=none;rounded=0;jumpStyle=none;html=1;shadow=0;labelBackgroundColor=none;startArrow=none;startFill=0;endArrow=classic;endFill=1;jettySize=auto;orthogonalLoop=1;strokeColor=#2F5B7C;strokeWidth=3;fontFamily=Helvetica;fontSize=16;fontColor=#23445D;spacing=5;exitX=0;exitY=1;exitDx=0;exitDy=0;" parent="1" target="VC-tiXhj3lt7oMg_6m5k-38" edge="1">
          <mxGeometry relative="1" as="geometry">
            <mxPoint x="493" y="453" as="sourcePoint" />
          </mxGeometry>
        </mxCell>
        <mxCell id="VC-tiXhj3lt7oMg_6m5k-27" value="est" style="edgeLabel;html=1;align=center;verticalAlign=middle;resizable=0;points=[];" parent="VC-tiXhj3lt7oMg_6m5k-26" vertex="1" connectable="0">
          <mxGeometry x="-0.1978" y="3" relative="1" as="geometry">
            <mxPoint as="offset" />
          </mxGeometry>
        </mxCell>
        <mxCell id="VC-tiXhj3lt7oMg_6m5k-28" value="" style="edgeStyle=none;rounded=0;jumpStyle=none;html=1;shadow=0;labelBackgroundColor=none;startArrow=none;startFill=0;endArrow=classic;endFill=1;jettySize=auto;orthogonalLoop=1;strokeColor=#2F5B7C;strokeWidth=3;fontFamily=Helvetica;fontSize=16;fontColor=#23445D;spacing=5;exitX=0;exitY=0.75;exitDx=0;exitDy=0;" parent="1" source="VC-tiXhj3lt7oMg_6m5k-42" target="VC-tiXhj3lt7oMg_6m5k-30" edge="1">
          <mxGeometry relative="1" as="geometry">
            <mxPoint x="497" y="448" as="sourcePoint" />
          </mxGeometry>
        </mxCell>
        <mxCell id="VC-tiXhj3lt7oMg_6m5k-29" value="engendre" style="edgeLabel;html=1;align=center;verticalAlign=middle;resizable=0;points=[];" parent="VC-tiXhj3lt7oMg_6m5k-28" vertex="1" connectable="0">
          <mxGeometry x="-0.0987" y="4" relative="1" as="geometry">
            <mxPoint x="-10" as="offset" />
          </mxGeometry>
        </mxCell>
        <mxCell id="VC-tiXhj3lt7oMg_6m5k-30" value="cash flow négatif" style="rounded=1;whiteSpace=wrap;html=1;shadow=0;labelBackgroundColor=none;strokeColor=#005700;strokeWidth=3;fillColor=#008a00;fontFamily=Helvetica;fontSize=14;fontColor=#ffffff;align=center;spacing=5;fontStyle=1;arcSize=7;perimeterSpacing=2;" parent="1" vertex="1">
          <mxGeometry x="-320" y="40" width="80" height="53.25" as="geometry" />
        </mxCell>
        <mxCell id="VC-tiXhj3lt7oMg_6m5k-31" value="&lt;div align=&quot;left&quot;&gt;livrables immatériels :&lt;/div&gt;&lt;div align=&quot;left&quot;&gt;&lt;br&gt;&lt;/div&gt;&lt;div align=&quot;left&quot;&gt;- Algorithme de réseaux neuronaux&lt;/div&gt;&lt;div align=&quot;left&quot;&gt;- Logiciels de Simulation environnemental&lt;/div&gt;&lt;div align=&quot;left&quot;&gt;- Plateforme de collaboration en ligne&lt;br&gt;&lt;/div&gt;" style="rounded=1;whiteSpace=wrap;html=1;shadow=0;labelBackgroundColor=none;strokeColor=#001DBC;strokeWidth=3;fillColor=#0050ef;fontFamily=Helvetica;fontSize=14;fontColor=#ffffff;align=center;spacing=5;fontStyle=0;arcSize=7;perimeterSpacing=2;verticalAlign=top;" parent="1" vertex="1">
          <mxGeometry x="-320" y="-380" width="270" height="110" as="geometry" />
        </mxCell>
        <mxCell id="VC-tiXhj3lt7oMg_6m5k-32" value="&lt;div&gt;livrables matériels :&lt;/div&gt;&lt;br&gt;&lt;div&gt;- Bionanites&lt;/div&gt;&lt;div&gt;- Reacteurs de fermentation&lt;br&gt;&lt;/div&gt;&lt;div&gt;- Système de photosynthèse&lt;/div&gt;&lt;div&gt;- unités de traitement des déchets&lt;/div&gt;&lt;div&gt;- Systèmes de sécurité informatique&lt;/div&gt;&lt;div&gt;- Systèmes de gestion intelligentes&lt;br&gt;&lt;/div&gt;" style="rounded=1;whiteSpace=wrap;html=1;shadow=0;labelBackgroundColor=none;strokeColor=#001DBC;strokeWidth=3;fillColor=#0050ef;fontFamily=Helvetica;fontSize=14;fontColor=#ffffff;align=left;spacing=5;fontStyle=0;arcSize=7;perimeterSpacing=2;verticalAlign=top;" parent="1" vertex="1">
          <mxGeometry x="-20" y="-380" width="240" height="160" as="geometry" />
        </mxCell>
        <mxCell id="VC-tiXhj3lt7oMg_6m5k-34" style="edgeStyle=orthogonalEdgeStyle;rounded=0;orthogonalLoop=1;jettySize=auto;html=1;exitX=0;exitY=0.5;exitDx=0;exitDy=0;entryX=0.5;entryY=1;entryDx=0;entryDy=0;" parent="1" source="VC-tiXhj3lt7oMg_6m5k-35" target="VC-tiXhj3lt7oMg_6m5k-31" edge="1">
          <mxGeometry relative="1" as="geometry">
            <mxPoint x="230" y="770" as="targetPoint" />
            <Array as="points">
              <mxPoint x="248" y="-180" />
              <mxPoint x="-185" y="-180" />
            </Array>
          </mxGeometry>
        </mxCell>
        <mxCell id="VC-tiXhj3lt7oMg_6m5k-45" value="est composé de " style="edgeLabel;html=1;align=center;verticalAlign=middle;resizable=0;points=[];" parent="VC-tiXhj3lt7oMg_6m5k-34" vertex="1" connectable="0">
          <mxGeometry x="-0.6216" y="1" relative="1" as="geometry">
            <mxPoint as="offset" />
          </mxGeometry>
        </mxCell>
        <mxCell id="VC-tiXhj3lt7oMg_6m5k-35" value="Livrables" style="rounded=1;whiteSpace=wrap;html=1;shadow=0;labelBackgroundColor=none;strokeColor=#005700;strokeWidth=3;fillColor=#008a00;fontFamily=Helvetica;fontSize=14;fontColor=#ffffff;align=center;spacing=5;fontStyle=1;arcSize=7;perimeterSpacing=2;" parent="1" vertex="1">
          <mxGeometry x="250" y="-210" width="80" height="53.25" as="geometry" />
        </mxCell>
        <mxCell id="VC-tiXhj3lt7oMg_6m5k-36" value="" style="edgeStyle=none;rounded=0;jumpStyle=none;html=1;shadow=0;labelBackgroundColor=none;startArrow=none;startFill=0;endArrow=classic;endFill=1;jettySize=auto;orthogonalLoop=1;strokeColor=#2F5B7C;strokeWidth=3;fontFamily=Helvetica;fontSize=16;fontColor=#23445D;spacing=5;entryX=0.972;entryY=0.856;entryDx=0;entryDy=0;exitX=0;exitY=0;exitDx=0;exitDy=0;entryPerimeter=0;" parent="1" source="VC-tiXhj3lt7oMg_6m5k-42" target="VC-tiXhj3lt7oMg_6m5k-35" edge="1">
          <mxGeometry relative="1" as="geometry">
            <mxPoint x="470" y="580" as="sourcePoint" />
            <mxPoint x="477" y="528" as="targetPoint" />
          </mxGeometry>
        </mxCell>
        <mxCell id="VC-tiXhj3lt7oMg_6m5k-37" value="produit" style="edgeLabel;html=1;align=center;verticalAlign=middle;resizable=0;points=[];" parent="VC-tiXhj3lt7oMg_6m5k-36" vertex="1" connectable="0">
          <mxGeometry x="-0.1978" y="3" relative="1" as="geometry">
            <mxPoint as="offset" />
          </mxGeometry>
        </mxCell>
        <mxCell id="VC-tiXhj3lt7oMg_6m5k-38" value="innovant" style="rounded=1;whiteSpace=wrap;html=1;shadow=0;labelBackgroundColor=none;strokeColor=#005700;strokeWidth=3;fillColor=#008a00;fontFamily=Helvetica;fontSize=14;fontColor=#ffffff;align=center;spacing=5;fontStyle=1;arcSize=7;perimeterSpacing=2;" parent="1" vertex="1">
          <mxGeometry x="-180" y="570" width="80" height="53.25" as="geometry" />
        </mxCell>
        <mxCell id="VC-tiXhj3lt7oMg_6m5k-39" value="&lt;div&gt;Phases : &lt;br&gt;&lt;/div&gt;&lt;div&gt;&lt;br&gt;&lt;/div&gt;&lt;div&gt;1. Exploration de Planatus&lt;/div&gt;&lt;div&gt;2. Culture de l&#39; Ignifolia Energia&lt;/div&gt;&lt;div&gt;3. Mise en place conversion&lt;/div&gt;&lt;div&gt;4. Création réseau distribution&lt;/div&gt;&lt;div&gt;5. Marketing &amp;amp; communication&lt;br&gt;&lt;/div&gt;&lt;div&gt;&lt;br&gt;&lt;/div&gt;" style="rounded=1;whiteSpace=wrap;html=1;shadow=0;labelBackgroundColor=none;strokeColor=#001DBC;strokeWidth=3;fillColor=#0050ef;fontFamily=Helvetica;fontSize=14;fontColor=#ffffff;align=left;spacing=5;fontStyle=0;arcSize=7;perimeterSpacing=2;verticalAlign=top;" parent="1" vertex="1">
          <mxGeometry x="-490" y="573.25" width="240" height="160" as="geometry" />
        </mxCell>
        <mxCell id="VC-tiXhj3lt7oMg_6m5k-40" value="" style="edgeStyle=segmentEdgeStyle;endArrow=classic;html=1;curved=0;rounded=0;endSize=8;startSize=8;exitX=0;exitY=0.5;exitDx=0;exitDy=0;entryX=0.5;entryY=0;entryDx=0;entryDy=0;" parent="1" source="VC-tiXhj3lt7oMg_6m5k-25" target="VC-tiXhj3lt7oMg_6m5k-39" edge="1">
          <mxGeometry width="50" height="50" relative="1" as="geometry">
            <mxPoint x="-130" y="720" as="sourcePoint" />
            <mxPoint x="-80" y="670" as="targetPoint" />
          </mxGeometry>
        </mxCell>
        <mxCell id="VC-tiXhj3lt7oMg_6m5k-41" value="se compose de " style="edgeLabel;html=1;align=center;verticalAlign=middle;resizable=0;points=[];" parent="VC-tiXhj3lt7oMg_6m5k-40" vertex="1" connectable="0">
          <mxGeometry x="-0.281" y="1" relative="1" as="geometry">
            <mxPoint as="offset" />
          </mxGeometry>
        </mxCell>
        <mxCell id="VC-tiXhj3lt7oMg_6m5k-43" value="" style="endArrow=none;html=1;rounded=0;" parent="1" edge="1">
          <mxGeometry width="50" height="50" relative="1" as="geometry">
            <mxPoint x="886.9000000000001" y="350" as="sourcePoint" />
            <mxPoint x="549" y="40" as="targetPoint" />
          </mxGeometry>
        </mxCell>
        <mxCell id="VC-tiXhj3lt7oMg_6m5k-42" value="Concepts du projet BioFuel" style="shape=ext;double=1;rounded=1;whiteSpace=wrap;html=1;labelBackgroundColor=default;" parent="1" vertex="1">
          <mxGeometry x="467" y="-20" width="100" height="60" as="geometry" />
        </mxCell>
        <mxCell id="VC-tiXhj3lt7oMg_6m5k-44" value="" style="endArrow=classic;html=1;rounded=0;entryX=0.505;entryY=0.97;entryDx=0;entryDy=0;entryPerimeter=0;" parent="1" target="VC-tiXhj3lt7oMg_6m5k-32" edge="1">
          <mxGeometry width="50" height="50" relative="1" as="geometry">
            <mxPoint x="100" y="-180" as="sourcePoint" />
            <mxPoint x="-20" y="80" as="targetPoint" />
            <Array as="points" />
          </mxGeometry>
        </mxCell>
        <mxCell id="qTHU6VsXDPw70Xse-YKT-1" value="" style="edgeStyle=none;rounded=0;jumpStyle=none;html=1;shadow=0;labelBackgroundColor=none;startArrow=none;startFill=0;endArrow=classic;endFill=1;jettySize=auto;orthogonalLoop=1;strokeColor=#2F5B7C;strokeWidth=3;fontFamily=Helvetica;fontSize=16;fontColor=#23445D;spacing=5;" edge="1" parent="1" target="qTHU6VsXDPw70Xse-YKT-3" source="VC-tiXhj3lt7oMg_6m5k-42">
          <mxGeometry relative="1" as="geometry">
            <mxPoint x="475" y="-210" as="sourcePoint" />
          </mxGeometry>
        </mxCell>
        <mxCell id="qTHU6VsXDPw70Xse-YKT-2" value="est " style="edgeLabel;html=1;align=center;verticalAlign=middle;resizable=0;points=[];" vertex="1" connectable="0" parent="qTHU6VsXDPw70Xse-YKT-1">
          <mxGeometry x="-0.2419" relative="1" as="geometry">
            <mxPoint y="1" as="offset" />
          </mxGeometry>
        </mxCell>
        <mxCell id="qTHU6VsXDPw70Xse-YKT-3" value="un projet sorti " style="rounded=1;whiteSpace=wrap;html=1;shadow=0;labelBackgroundColor=none;strokeColor=#005700;strokeWidth=3;fillColor=#008a00;fontFamily=Helvetica;fontSize=14;fontColor=#ffffff;align=center;spacing=5;fontStyle=1;arcSize=7;perimeterSpacing=2;" vertex="1" parent="1">
          <mxGeometry x="440" y="-170" width="110" height="50" as="geometry" />
        </mxCell>
        <mxCell id="qTHU6VsXDPw70Xse-YKT-5" value="chef de projet : Alberto Lopez" style="rounded=1;whiteSpace=wrap;html=1;shadow=0;labelBackgroundColor=none;strokeColor=#001DBC;strokeWidth=3;fillColor=#0050ef;fontFamily=Helvetica;fontSize=14;fontColor=#ffffff;align=center;spacing=5;fontStyle=1;arcSize=7;perimeterSpacing=2;" vertex="1" parent="1">
          <mxGeometry x="435" y="-250" width="120" height="60" as="geometry" />
        </mxCell>
        <mxCell id="qTHU6VsXDPw70Xse-YKT-6" value="une équipe dédiée" style="rounded=1;whiteSpace=wrap;html=1;shadow=0;labelBackgroundColor=none;strokeColor=#001DBC;strokeWidth=3;fillColor=#0050ef;fontFamily=Helvetica;fontSize=14;fontColor=#ffffff;align=center;spacing=5;fontStyle=1;arcSize=7;perimeterSpacing=2;" vertex="1" parent="1">
          <mxGeometry x="435" y="-340" width="120" height="60" as="geometry" />
        </mxCell>
        <mxCell id="qTHU6VsXDPw70Xse-YKT-14" value="" style="endArrow=classic;html=1;rounded=0;exitX=0.5;exitY=0;exitDx=0;exitDy=0;entryX=0.5;entryY=1;entryDx=0;entryDy=0;" edge="1" parent="1" source="qTHU6VsXDPw70Xse-YKT-5" target="qTHU6VsXDPw70Xse-YKT-6">
          <mxGeometry width="50" height="50" relative="1" as="geometry">
            <mxPoint x="760" y="-260" as="sourcePoint" />
            <mxPoint x="810" y="-310" as="targetPoint" />
          </mxGeometry>
        </mxCell>
        <mxCell id="qTHU6VsXDPw70Xse-YKT-15" value="dirige" style="edgeLabel;html=1;align=center;verticalAlign=middle;resizable=0;points=[];" vertex="1" connectable="0" parent="qTHU6VsXDPw70Xse-YKT-14">
          <mxGeometry x="0.0949" y="2" relative="1" as="geometry">
            <mxPoint as="offset" />
          </mxGeometry>
        </mxCell>
        <mxCell id="qTHU6VsXDPw70Xse-YKT-16" value="" style="endArrow=classic;html=1;rounded=0;entryX=0.5;entryY=1;entryDx=0;entryDy=0;exitX=0.5;exitY=0;exitDx=0;exitDy=0;" edge="1" parent="1" source="qTHU6VsXDPw70Xse-YKT-3" target="qTHU6VsXDPw70Xse-YKT-5">
          <mxGeometry width="50" height="50" relative="1" as="geometry">
            <mxPoint x="490" y="-206.75" as="sourcePoint" />
            <mxPoint x="540" y="-256.75" as="targetPoint" />
          </mxGeometry>
        </mxCell>
        <mxCell id="qTHU6VsXDPw70Xse-YKT-17" value="a" style="edgeLabel;html=1;align=center;verticalAlign=middle;resizable=0;points=[];" vertex="1" connectable="0" parent="qTHU6VsXDPw70Xse-YKT-16">
          <mxGeometry x="-0.125" y="-1" relative="1" as="geometry">
            <mxPoint x="14" y="-4" as="offset" />
          </mxGeometry>
        </mxCell>
        <mxCell id="qTHU6VsXDPw70Xse-YKT-19" value="" style="shape=waypoint;sketch=0;size=6;pointerEvents=1;points=[];fillColor=none;resizable=0;rotatable=0;perimeter=centerPerimeter;snapToPoint=1;fillStyle=solid;container=0;strokeWidth=0;labelBackgroundColor=default;strokeColor=#FFFFFF;" vertex="1" parent="1">
          <mxGeometry x="144.94216182048046" y="560.2768449197861" width="20" height="20" as="geometry" />
        </mxCell>
        <mxCell id="qTHU6VsXDPw70Xse-YKT-20" value="" style="shape=waypoint;sketch=0;size=6;pointerEvents=1;points=[];fillColor=none;resizable=0;rotatable=0;perimeter=centerPerimeter;snapToPoint=1;fillStyle=solid;container=0;strokeWidth=0;labelBackgroundColor=default;strokeColor=#FFFFFF;" vertex="1" parent="1">
          <mxGeometry x="174.49171934260437" y="560.2768449197861" width="20" height="20" as="geometry" />
        </mxCell>
        <mxCell id="qTHU6VsXDPw70Xse-YKT-21" value="" style="shape=waypoint;sketch=0;size=6;pointerEvents=1;points=[];fillColor=none;resizable=0;rotatable=0;perimeter=centerPerimeter;snapToPoint=1;fillStyle=solid;container=0;strokeWidth=0;labelBackgroundColor=default;strokeColor=#FFFFFF;" vertex="1" parent="1">
          <mxGeometry x="144.94216182048046" y="589.2083957219252" width="20" height="20" as="geometry" />
        </mxCell>
        <mxCell id="qTHU6VsXDPw70Xse-YKT-22" value="" style="shape=waypoint;sketch=0;size=6;pointerEvents=1;points=[];fillColor=none;resizable=0;rotatable=0;perimeter=centerPerimeter;snapToPoint=1;fillStyle=solid;container=0;strokeWidth=0;labelBackgroundColor=default;strokeColor=#FFFFFF;" vertex="1" parent="1">
          <mxGeometry x="174.49171934260437" y="589.2083957219252" width="20" height="20" as="geometry" />
        </mxCell>
        <mxCell id="qTHU6VsXDPw70Xse-YKT-23" value="" style="shape=waypoint;sketch=0;size=6;pointerEvents=1;points=[];fillColor=none;resizable=0;rotatable=0;perimeter=centerPerimeter;snapToPoint=1;fillStyle=solid;container=0;strokeWidth=0;labelBackgroundColor=default;strokeColor=#FFFFFF;" vertex="1" parent="1">
          <mxGeometry x="144.94216182048046" y="618.1399465240642" width="20" height="20" as="geometry" />
        </mxCell>
        <mxCell id="qTHU6VsXDPw70Xse-YKT-24" value="" style="shape=waypoint;sketch=0;size=6;pointerEvents=1;points=[];fillColor=none;resizable=0;rotatable=0;perimeter=centerPerimeter;snapToPoint=1;fillStyle=solid;container=0;strokeWidth=0;labelBackgroundColor=default;strokeColor=#FFFFFF;" vertex="1" parent="1">
          <mxGeometry x="174.49171934260437" y="618.1399465240642" width="20" height="20" as="geometry" />
        </mxCell>
        <mxCell id="qTHU6VsXDPw70Xse-YKT-25" value="" style="shape=waypoint;sketch=0;size=6;pointerEvents=1;points=[];fillColor=none;resizable=0;rotatable=0;perimeter=centerPerimeter;snapToPoint=1;fillStyle=solid;container=0;strokeWidth=0;labelBackgroundColor=default;strokeColor=#FFFFFF;" vertex="1" parent="1">
          <mxGeometry x="144.94216182048046" y="647.0714973262031" width="20" height="20" as="geometry" />
        </mxCell>
        <mxCell id="qTHU6VsXDPw70Xse-YKT-26" value="" style="shape=waypoint;sketch=0;size=6;pointerEvents=1;points=[];fillColor=none;resizable=0;rotatable=0;perimeter=centerPerimeter;snapToPoint=1;fillStyle=solid;container=0;strokeWidth=0;labelBackgroundColor=default;strokeColor=#FFFFFF;" vertex="1" parent="1">
          <mxGeometry x="174.49171934260437" y="647.0714973262031" width="20" height="20" as="geometry" />
        </mxCell>
        <mxCell id="qTHU6VsXDPw70Xse-YKT-27" value="" style="shape=waypoint;sketch=0;size=6;pointerEvents=1;points=[];fillColor=none;resizable=0;rotatable=0;perimeter=centerPerimeter;snapToPoint=1;fillStyle=solid;container=0;strokeWidth=0;labelBackgroundColor=default;strokeColor=#FFFFFF;" vertex="1" parent="1">
          <mxGeometry x="144.94216182048046" y="676.0030481283422" width="20" height="20" as="geometry" />
        </mxCell>
        <mxCell id="qTHU6VsXDPw70Xse-YKT-28" value="" style="shape=waypoint;sketch=0;size=6;pointerEvents=1;points=[];fillColor=none;resizable=0;rotatable=0;perimeter=centerPerimeter;snapToPoint=1;fillStyle=solid;container=0;strokeWidth=0;labelBackgroundColor=default;strokeColor=#FFFFFF;" vertex="1" parent="1">
          <mxGeometry x="174.49171934260437" y="676.0030481283422" width="20" height="20" as="geometry" />
        </mxCell>
        <mxCell id="qTHU6VsXDPw70Xse-YKT-29" value="" style="endArrow=none;html=1;rounded=0;entryX=0.303;entryY=0.803;entryDx=0;entryDy=0;entryPerimeter=0;strokeColor=#FFFFFF;" edge="1" parent="1" source="qTHU6VsXDPw70Xse-YKT-21" target="qTHU6VsXDPw70Xse-YKT-19">
          <mxGeometry width="50" height="50" relative="1" as="geometry">
            <mxPoint x="11.950000000000045" y="713.25" as="sourcePoint" />
            <mxPoint x="61.950000000000045" y="663.25" as="targetPoint" />
            <Array as="points" />
          </mxGeometry>
        </mxCell>
        <mxCell id="qTHU6VsXDPw70Xse-YKT-45" value="" style="group" vertex="1" connectable="0" parent="1">
          <mxGeometry x="700" y="-480" width="520" height="470" as="geometry" />
        </mxCell>
        <mxCell id="VC-tiXhj3lt7oMg_6m5k-17" value="Profil" style="text;strokeColor=none;fillColor=none;html=1;fontSize=15;fontStyle=1;verticalAlign=middle;align=center;" parent="qTHU6VsXDPw70Xse-YKT-45" vertex="1">
          <mxGeometry x="224.48979591836746" y="251.95876288659787" width="69.14285714285715" height="19.381443298969067" as="geometry" />
        </mxCell>
        <mxCell id="qTHU6VsXDPw70Xse-YKT-30" value="" style="group" vertex="1" connectable="0" parent="qTHU6VsXDPw70Xse-YKT-45">
          <mxGeometry width="520" height="469.99999999999994" as="geometry" />
        </mxCell>
        <mxCell id="qTHU6VsXDPw70Xse-YKT-31" value="MOA" style="rounded=1;whiteSpace=wrap;html=1;shadow=0;labelBackgroundColor=none;strokeColor=#001DBC;strokeWidth=3;fillColor=#0050ef;fontFamily=Helvetica;fontSize=14;fontColor=#ffffff;align=center;spacing=5;fontStyle=0;arcSize=7;perimeterSpacing=2;" vertex="1" parent="qTHU6VsXDPw70Xse-YKT-30">
          <mxGeometry y="160.86597938144322" width="71.83673469387757" height="43.12371134020618" as="geometry" />
        </mxCell>
        <mxCell id="qTHU6VsXDPw70Xse-YKT-32" style="edgeStyle=elbowEdgeStyle;rounded=0;orthogonalLoop=1;jettySize=auto;html=1;exitX=1;exitY=0.5;exitDx=0;exitDy=0;" edge="1" parent="qTHU6VsXDPw70Xse-YKT-30" source="qTHU6VsXDPw70Xse-YKT-33" target="qTHU6VsXDPw70Xse-YKT-35">
          <mxGeometry relative="1" as="geometry" />
        </mxCell>
        <mxCell id="qTHU6VsXDPw70Xse-YKT-33" value="MOE" style="rounded=1;whiteSpace=wrap;html=1;shadow=0;labelBackgroundColor=none;strokeColor=#001DBC;strokeWidth=3;fillColor=#0050ef;fontFamily=Helvetica;fontSize=14;fontColor=#ffffff;align=center;spacing=5;fontStyle=0;arcSize=7;perimeterSpacing=2;" vertex="1" parent="qTHU6VsXDPw70Xse-YKT-30">
          <mxGeometry y="228.70103092783498" width="71.83673469387757" height="43.12371134020618" as="geometry" />
        </mxCell>
        <mxCell id="qTHU6VsXDPw70Xse-YKT-34" value="&lt;div&gt;&lt;u&gt;directeur exploitation&lt;/u&gt; : Dalil Kadiry&lt;br&gt;&lt;/div&gt;&lt;div&gt;&lt;u&gt;DRH&lt;/u&gt; : Laura Lopez&lt;br&gt;&lt;u&gt;directeur commercial&lt;/u&gt; : Christian Yameogo&lt;/div&gt;&lt;div&gt;&lt;u&gt;directeur scientifique&lt;/u&gt; : Martial ILINGA&lt;/div&gt;&lt;div&gt;&lt;u&gt;directeur R&amp;amp;D&lt;/u&gt; : Alexia GRATUS&lt;/div&gt;&lt;div&gt;&lt;u&gt;directeur financier&lt;/u&gt; : Nicolas KADRIZONKOV&lt;br&gt;&lt;/div&gt;" style="rounded=1;whiteSpace=wrap;html=1;shadow=0;labelBackgroundColor=none;strokeWidth=3;fontFamily=Helvetica;fontSize=14;align=left;spacing=5;fontStyle=0;arcSize=7;perimeterSpacing=2;" vertex="1" parent="qTHU6VsXDPw70Xse-YKT-30">
          <mxGeometry x="224.48979591836746" y="310" width="295.51" height="149.82" as="geometry" />
        </mxCell>
        <mxCell id="qTHU6VsXDPw70Xse-YKT-35" value="&lt;div&gt;&lt;b&gt;Chef de Projet&lt;/b&gt;&amp;nbsp;&lt;/div&gt;&lt;div align=&quot;left&quot;&gt;&lt;u&gt;ceo&lt;/u&gt;: Alberto Lopez&lt;/div&gt;" style="rounded=1;whiteSpace=wrap;html=1;shadow=0;labelBackgroundColor=none;strokeWidth=3;fontFamily=Helvetica;fontSize=14;align=center;spacing=5;fontStyle=0;arcSize=7;perimeterSpacing=2;" vertex="1" parent="qTHU6VsXDPw70Xse-YKT-30">
          <mxGeometry x="224.48979591836746" y="239.9994845360824" width="125.71428571428574" height="52.81443298969072" as="geometry" />
        </mxCell>
        <mxCell id="qTHU6VsXDPw70Xse-YKT-36" style="edgeStyle=elbowEdgeStyle;rounded=0;orthogonalLoop=1;jettySize=auto;html=1;exitX=1;exitY=0.5;exitDx=0;exitDy=0;" edge="1" parent="qTHU6VsXDPw70Xse-YKT-30" source="qTHU6VsXDPw70Xse-YKT-33" target="qTHU6VsXDPw70Xse-YKT-34">
          <mxGeometry relative="1" as="geometry">
            <mxPoint x="82.61224489795919" y="259.7113402061854" as="sourcePoint" />
            <mxPoint x="159.8367346938776" y="308.16494845360813" as="targetPoint" />
            <Array as="points">
              <mxPoint x="170.61224489795921" y="319.79381443298956" />
            </Array>
          </mxGeometry>
        </mxCell>
        <mxCell id="qTHU6VsXDPw70Xse-YKT-37" value="est composé de " style="edgeLabel;html=1;align=center;verticalAlign=middle;resizable=0;points=[];" vertex="1" connectable="0" parent="qTHU6VsXDPw70Xse-YKT-36">
          <mxGeometry x="-0.5101" y="-4" relative="1" as="geometry">
            <mxPoint x="-7" y="-4" as="offset" />
          </mxGeometry>
        </mxCell>
        <mxCell id="qTHU6VsXDPw70Xse-YKT-60" value="COMITE DE PILOTAGE" style="rounded=1;whiteSpace=wrap;html=1;shadow=0;labelBackgroundColor=none;strokeColor=#001DBC;strokeWidth=3;fillColor=#0050ef;fontFamily=Helvetica;fontSize=14;fontColor=#ffffff;align=center;spacing=5;fontStyle=0;arcSize=7;perimeterSpacing=2;" vertex="1" parent="qTHU6VsXDPw70Xse-YKT-30">
          <mxGeometry y="292.81" width="70" height="60" as="geometry" />
        </mxCell>
        <mxCell id="qTHU6VsXDPw70Xse-YKT-38" value="&lt;b&gt;AMOA&lt;/b&gt; &lt;br&gt;Tara Flint" style="rounded=1;whiteSpace=wrap;html=1;shadow=0;labelBackgroundColor=none;strokeWidth=3;fontFamily=Helvetica;fontSize=14;align=center;spacing=5;fontStyle=0;arcSize=7;perimeterSpacing=2;" vertex="1" parent="qTHU6VsXDPw70Xse-YKT-45">
          <mxGeometry x="224.48979591836746" y="70.01546391752575" width="71.83673469387757" height="43.12371134020618" as="geometry" />
        </mxCell>
        <mxCell id="qTHU6VsXDPw70Xse-YKT-39" value="&lt;div align=&quot;center&quot;&gt;&lt;b&gt;Comité direction &lt;/b&gt;&lt;/div&gt;&lt;div&gt;&lt;u&gt;Président&lt;/u&gt;: Jakob Niles&lt;/div&gt;&lt;div&gt;&lt;u&gt;vice présidente&lt;/u&gt; : Lena Kostas&lt;/div&gt;&lt;div&gt;&lt;u&gt;secrétaire général&lt;/u&gt; : Rajeev Singh&lt;br&gt;&lt;u&gt;directeur logistique&lt;/u&gt; : Hiro Tanaka&lt;br&gt;&lt;/div&gt;" style="rounded=1;whiteSpace=wrap;html=1;shadow=0;labelBackgroundColor=none;strokeWidth=3;fontFamily=Helvetica;fontSize=14;align=left;spacing=5;fontStyle=0;arcSize=7;perimeterSpacing=2;" vertex="1" parent="qTHU6VsXDPw70Xse-YKT-45">
          <mxGeometry x="224.48979591836746" y="138.81958762886592" width="215.51020408163265" height="87.2164948453608" as="geometry" />
        </mxCell>
        <mxCell id="qTHU6VsXDPw70Xse-YKT-40" value="&lt;div&gt;&lt;b&gt;Porteur de Projet&lt;/b&gt;&amp;nbsp;&lt;/div&gt;&lt;div&gt;&lt;b&gt;U&lt;/b&gt;nion &lt;b&gt;F&lt;/b&gt;édérale des &lt;b&gt;P&lt;/b&gt;ays&lt;/div&gt;" style="rounded=1;whiteSpace=wrap;html=1;shadow=0;labelBackgroundColor=none;strokeWidth=3;fontFamily=Helvetica;fontSize=14;align=center;spacing=5;fontStyle=0;arcSize=7;perimeterSpacing=2;" vertex="1" parent="qTHU6VsXDPw70Xse-YKT-45">
          <mxGeometry x="224.48979591836746" width="215.51020408163265" height="52.81443298969072" as="geometry" />
        </mxCell>
        <mxCell id="qTHU6VsXDPw70Xse-YKT-41" value="" style="edgeStyle=elbowEdgeStyle;elbow=horizontal;endArrow=classic;html=1;curved=0;rounded=0;endSize=8;startSize=8;exitX=1;exitY=0.5;exitDx=0;exitDy=0;entryX=0;entryY=0.5;entryDx=0;entryDy=0;" edge="1" parent="qTHU6VsXDPw70Xse-YKT-45" source="qTHU6VsXDPw70Xse-YKT-31" target="qTHU6VsXDPw70Xse-YKT-38">
          <mxGeometry width="50" height="50" relative="1" as="geometry">
            <mxPoint x="26.93877551020408" y="106.59793814432989" as="sourcePoint" />
            <mxPoint x="71.83673469387757" y="58.1443298969072" as="targetPoint" />
            <Array as="points">
              <mxPoint x="152.65306122448987" y="135.67010309278348" />
            </Array>
          </mxGeometry>
        </mxCell>
        <mxCell id="qTHU6VsXDPw70Xse-YKT-42" value="" style="edgeStyle=elbowEdgeStyle;elbow=horizontal;endArrow=classic;html=1;curved=0;rounded=0;endSize=8;startSize=8;exitX=1;exitY=0.5;exitDx=0;exitDy=0;" edge="1" parent="qTHU6VsXDPw70Xse-YKT-45" source="qTHU6VsXDPw70Xse-YKT-31" target="qTHU6VsXDPw70Xse-YKT-39">
          <mxGeometry width="50" height="50" relative="1" as="geometry">
            <mxPoint x="26.93877551020408" y="106.59793814432989" as="sourcePoint" />
            <mxPoint x="105.9591836734694" y="184.12371134020614" as="targetPoint" />
          </mxGeometry>
        </mxCell>
        <mxCell id="qTHU6VsXDPw70Xse-YKT-43" value="" style="edgeStyle=elbowEdgeStyle;elbow=horizontal;endArrow=classic;html=1;curved=0;rounded=0;endSize=8;startSize=8;exitX=1;exitY=0.5;exitDx=0;exitDy=0;entryX=0;entryY=0.5;entryDx=0;entryDy=0;" edge="1" parent="qTHU6VsXDPw70Xse-YKT-45" source="qTHU6VsXDPw70Xse-YKT-31" target="qTHU6VsXDPw70Xse-YKT-40">
          <mxGeometry width="50" height="50" relative="1" as="geometry">
            <mxPoint x="26.93877551020408" y="106.59793814432989" as="sourcePoint" />
            <mxPoint x="71.83673469387757" y="58.1443298969072" as="targetPoint" />
            <Array as="points">
              <mxPoint x="152.65306122448987" y="106.59793814432989" />
            </Array>
          </mxGeometry>
        </mxCell>
        <mxCell id="qTHU6VsXDPw70Xse-YKT-44" value="est composé de " style="edgeLabel;html=1;align=center;verticalAlign=middle;resizable=0;points=[];" vertex="1" connectable="0" parent="qTHU6VsXDPw70Xse-YKT-43">
          <mxGeometry x="-0.6208" y="1" relative="1" as="geometry">
            <mxPoint x="-15" y="1" as="offset" />
          </mxGeometry>
        </mxCell>
        <mxCell id="qTHU6VsXDPw70Xse-YKT-51" value="" style="edgeStyle=elbowEdgeStyle;elbow=horizontal;endArrow=classic;html=1;curved=0;rounded=0;endSize=8;startSize=8;exitX=1;exitY=0;exitDx=0;exitDy=0;entryX=0;entryY=0.5;entryDx=0;entryDy=0;" edge="1" parent="1" source="VC-tiXhj3lt7oMg_6m5k-42" target="qTHU6VsXDPw70Xse-YKT-31">
          <mxGeometry width="50" height="50" relative="1" as="geometry">
            <mxPoint x="360" y="-60" as="sourcePoint" />
            <mxPoint x="410" y="-110" as="targetPoint" />
            <Array as="points">
              <mxPoint x="640" y="-220" />
            </Array>
          </mxGeometry>
        </mxCell>
        <mxCell id="qTHU6VsXDPw70Xse-YKT-53" value="est composé de" style="edgeLabel;html=1;align=center;verticalAlign=middle;resizable=0;points=[];" vertex="1" connectable="0" parent="qTHU6VsXDPw70Xse-YKT-51">
          <mxGeometry x="-0.1564" y="1" relative="1" as="geometry">
            <mxPoint as="offset" />
          </mxGeometry>
        </mxCell>
        <mxCell id="qTHU6VsXDPw70Xse-YKT-52" value="" style="endArrow=classic;html=1;rounded=0;" edge="1" parent="1">
          <mxGeometry width="50" height="50" relative="1" as="geometry">
            <mxPoint x="640" y="-230" as="sourcePoint" />
            <mxPoint x="700" y="-230" as="targetPoint" />
          </mxGeometry>
        </mxCell>
        <mxCell id="qTHU6VsXDPw70Xse-YKT-58" value="Profil" style="text;strokeColor=none;fillColor=none;html=1;fontSize=15;fontStyle=1;verticalAlign=middle;align=center;" vertex="1" parent="1">
          <mxGeometry x="370.8565306122449" y="169.9987628865979" width="69.14285714285715" height="19.381443298969067" as="geometry" />
        </mxCell>
        <mxCell id="qTHU6VsXDPw70Xse-YKT-61" value="&lt;div&gt;Président : M.Jakob NILES&lt;/div&gt;&lt;div&gt;Vice-présidente : M. Lena KOSTAS&lt;/div&gt;&lt;div&gt;Secrétaire général : M. Rajeev SINGH&lt;/div&gt;&lt;div&gt;Directeur de la logistique :M.Hiro TANAKA&lt;/div&gt;&lt;div&gt;Cheffe de Projets environnementaux : Mme.Tara FLINT&lt;br&gt;&lt;/div&gt;" style="rounded=1;whiteSpace=wrap;html=1;shadow=0;labelBackgroundColor=none;strokeWidth=3;fontFamily=Helvetica;fontSize=14;align=left;spacing=5;fontStyle=0;arcSize=7;perimeterSpacing=2;" vertex="1" parent="1">
          <mxGeometry x="924.4897959183675" y="10" width="365.51" height="130" as="geometry" />
        </mxCell>
        <mxCell id="qTHU6VsXDPw70Xse-YKT-63" style="edgeStyle=elbowEdgeStyle;rounded=0;orthogonalLoop=1;jettySize=auto;html=1;exitX=1;exitY=0.5;exitDx=0;exitDy=0;" edge="1" parent="1" source="qTHU6VsXDPw70Xse-YKT-60" target="qTHU6VsXDPw70Xse-YKT-61">
          <mxGeometry relative="1" as="geometry">
            <mxPoint x="772.6122448979592" y="-48.98865979381458" as="sourcePoint" />
            <mxPoint x="849.8367346938776" y="-0.5350515463918555" as="targetPoint" />
            <Array as="points">
              <mxPoint x="860.6122448979593" y="11.093814432989575" />
            </Array>
          </mxGeometry>
        </mxCell>
        <mxCell id="qTHU6VsXDPw70Xse-YKT-64" value="est composé de " style="edgeLabel;html=1;align=center;verticalAlign=middle;resizable=0;points=[];" vertex="1" connectable="0" parent="qTHU6VsXDPw70Xse-YKT-63">
          <mxGeometry x="-0.5101" y="-4" relative="1" as="geometry">
            <mxPoint x="10" y="58" as="offset" />
          </mxGeometry>
        </mxCell>
        <mxCell id="qTHU6VsXDPw70Xse-YKT-65" value="Caractéristiques" style="text;strokeColor=none;fillColor=none;html=1;fontSize=15;fontStyle=1;verticalAlign=middle;align=center;" vertex="1" parent="1">
          <mxGeometry x="370.85591836734704" y="109.9987628865979" width="69.14285714285715" height="19.381443298969067" as="geometry" />
        </mxCell>
        <mxCell id="qTHU6VsXDPw70Xse-YKT-66" value="" style="endArrow=classic;html=1;rounded=0;" edge="1" parent="1">
          <mxGeometry width="50" height="50" relative="1" as="geometry">
            <mxPoint x="640" y="-156.75" as="sourcePoint" />
            <mxPoint x="700" y="-156.75" as="targetPoint" />
          </mxGeometry>
        </mxCell>
      </root>
    </mxGraphModel>
  </diagram>
</mxfile>
